<svg version="1.1" xmlns="http://www.w3.org/2000/svg" viewBox="0 0 500 500">
<path fill="#000000" opacity="1.000000" stroke="none" 
	d="
M305.000000,501.000000 
	C203.333359,501.000000 102.166718,501.000000 1.000054,501.000000 
	C1.000036,334.333405 1.000036,167.666794 1.000018,1.000144 
	C167.666565,1.000096 334.333130,1.000096 500.999756,1.000048 
	C500.999847,167.666519 500.999847,334.333038 500.999939,500.999786 
	C435.833344,501.000000 370.666656,501.000000 305.000000,501.000000 
M363.016479,325.847504 
	C364.079315,325.573273 365.142151,325.299072 366.824127,324.865112 
	C339.022095,276.730896 311.485870,229.056885 283.743896,181.026596 
	C282.622711,182.283279 281.714935,183.028717 281.147949,183.977722 
	C274.333099,195.383987 267.352325,206.701950 260.976196,218.350220 
	C259.721588,220.642136 259.879913,224.718140 261.073822,227.139374 
	C263.991821,233.056992 267.897156,238.487747 271.679688,244.555038 
	C275.631348,237.950455 279.439209,231.586182 283.417572,224.936935 
	C298.483734,251.060898 313.348175,276.835083 328.525116,303.151062 
	C317.500702,303.151062 307.347382,303.329620 297.211975,302.983154 
	C295.430267,302.922272 293.063232,301.047333 292.080444,299.360962 
	C274.356384,268.947968 256.807983,238.432678 239.211487,207.945312 
	C234.030273,198.968445 228.816681,190.010284 223.171143,180.272888 
	C195.029892,229.009399 167.441681,276.788116 139.444183,325.275635 
	C141.854996,325.522583 143.444839,325.825500 145.035034,325.827393 
	C170.026581,325.857269 195.018463,325.792847 220.009506,325.909424 
	C223.665710,325.926483 225.869095,324.488861 227.621704,321.443298 
	C232.753464,312.525543 238.039932,303.696777 243.274261,294.838165 
	C246.471451,289.427155 247.234879,283.924530 243.722214,278.370941 
	C240.999252,274.065857 238.136932,269.848907 234.993500,265.071411 
	C233.792145,266.734802 232.639618,268.080841 231.761505,269.586853 
	C226.072388,279.344147 220.537094,289.192932 214.709793,298.866211 
	C213.627075,300.663513 211.493484,302.981293 209.767380,303.047852 
	C199.553253,303.441559 189.316254,303.241974 177.913544,303.241974 
	C193.255630,276.700684 208.020538,251.157898 223.178421,224.935272 
	C224.523727,227.118362 225.328674,228.353195 226.063934,229.628220 
	C243.480743,259.830688 260.945557,290.005798 278.235077,320.281006 
	C280.568878,324.367676 283.282959,326.017914 288.132874,325.967224 
	C312.788544,325.709534 337.448364,325.848358 363.016479,325.847504 
M82.279457,126.499878 
	C82.279457,146.929916 82.279457,167.359940 82.279457,187.747498 
	C90.297043,187.747498 97.696556,187.747498 105.457443,187.747498 
	C105.457443,160.348892 105.457443,133.256180 105.457443,105.494019 
	C133.158951,105.494019 160.499664,105.494019 187.642624,105.494019 
	C187.642624,97.422157 187.642624,90.028854 187.642624,82.745132 
	C152.368423,82.745132 117.466331,82.745132 82.279465,82.745132 
	C82.279465,97.218704 82.279465,111.359283 82.279457,126.499878 
M374.499725,105.589752 
	C381.773041,105.589752 389.046356,105.589752 396.830139,105.589752 
	C396.830139,133.465408 396.830139,160.666779 396.830139,187.653595 
	C404.756622,187.653595 412.149384,187.653595 419.505798,187.653595 
	C419.505798,152.487259 419.505798,117.723701 419.505798,82.731842 
	C384.254791,82.731842 349.218994,82.731842 314.270142,82.731842 
	C314.270142,90.466057 314.270142,97.874107 314.270142,105.589737 
	C334.229523,105.589737 353.864594,105.589737 374.499725,105.589752 
M82.279457,328.507324 
	C82.279457,358.750854 82.279457,388.994385 82.279457,419.338562 
	C117.856239,419.338562 152.771423,419.338562 187.779312,419.338562 
	C187.779312,411.666687 187.779312,404.248016 187.779312,396.336975 
	C160.310852,396.336975 133.071777,396.336975 105.328949,396.336975 
	C105.328949,368.627228 105.328949,341.406799 105.328949,314.272949 
	C97.403778,314.272949 89.993805,314.272949 82.279465,314.272949 
	C82.279465,318.900635 82.279465,323.206329 82.279457,328.507324 
M372.499756,419.589752 
	C388.109650,419.589752 403.719543,419.589752 419.454529,419.589752 
	C419.454529,384.114929 419.454529,349.217896 419.454529,314.193115 
	C411.779388,314.193115 404.372284,314.193115 396.421509,314.193115 
	C396.421509,341.650085 396.421509,368.862427 396.421509,396.558716 
	C368.645081,396.558716 341.410675,396.558716 314.269806,396.558716 
	C314.269806,404.465424 314.269806,411.873566 314.269806,419.589752 
	C333.562378,419.589752 352.531036,419.589752 372.499756,419.589752 
M117.403267,148.893448 
	C118.691780,150.195740 119.922997,151.561264 121.278412,152.789734 
	C128.287827,159.142654 138.171844,159.774643 146.647339,154.456329 
	C154.367920,149.611679 157.982117,139.747559 155.333328,130.980621 
	C152.837051,122.718468 147.284271,117.464920 138.937164,116.149834 
	C130.405792,114.805725 122.728775,117.090157 117.610207,124.809830 
	C112.524727,132.479614 112.645256,140.322388 117.403267,148.893448 
z"/>
<path fill="#FCFCFC" opacity="1.000000" stroke="none" 
	d="
M362.561615,325.847900 
	C337.448364,325.848358 312.788544,325.709534 288.132874,325.967224 
	C283.282959,326.017914 280.568878,324.367676 278.235077,320.281006 
	C260.945557,290.005798 243.480743,259.830688 226.063934,229.628220 
	C225.328674,228.353195 224.523727,227.118362 223.178421,224.935272 
	C208.020538,251.157898 193.255630,276.700684 177.913544,303.241974 
	C189.316254,303.241974 199.553253,303.441559 209.767380,303.047852 
	C211.493484,302.981293 213.627075,300.663513 214.709793,298.866211 
	C220.537094,289.192932 226.072388,279.344147 231.761505,269.586853 
	C232.639618,268.080841 233.792145,266.734802 234.993500,265.071411 
	C238.136932,269.848907 240.999252,274.065857 243.722214,278.370941 
	C247.234879,283.924530 246.471451,289.427155 243.274261,294.838165 
	C238.039932,303.696777 232.753464,312.525543 227.621704,321.443298 
	C225.869095,324.488861 223.665710,325.926483 220.009506,325.909424 
	C195.018463,325.792847 170.026581,325.857269 145.035034,325.827393 
	C143.444839,325.825500 141.854996,325.522583 139.444183,325.275635 
	C167.441681,276.788116 195.029892,229.009399 223.171143,180.272888 
	C228.816681,190.010284 234.030273,198.968445 239.211487,207.945312 
	C256.807983,238.432678 274.356384,268.947968 292.080444,299.360962 
	C293.063232,301.047333 295.430267,302.922272 297.211975,302.983154 
	C307.347382,303.329620 317.500702,303.151062 328.525116,303.151062 
	C313.348175,276.835083 298.483734,251.060898 283.417572,224.936935 
	C279.439209,231.586182 275.631348,237.950455 271.679688,244.555038 
	C267.897156,238.487747 263.991821,233.056992 261.073822,227.139374 
	C259.879913,224.718140 259.721588,220.642136 260.976196,218.350220 
	C267.352325,206.701950 274.333099,195.383987 281.147949,183.977722 
	C281.714935,183.028717 282.622711,182.283279 283.743896,181.026596 
	C311.485870,229.056885 339.022095,276.730896 366.824127,324.865112 
	C365.142151,325.299072 364.079315,325.573273 362.561615,325.847900 
z"/>
<path fill="#FCFCFC" opacity="1.000000" stroke="none" 
	d="
M82.279465,125.999878 
	C82.279465,111.359283 82.279465,97.218704 82.279465,82.745132 
	C117.466331,82.745132 152.368423,82.745132 187.642624,82.745132 
	C187.642624,90.028854 187.642624,97.422157 187.642624,105.494019 
	C160.499664,105.494019 133.158951,105.494019 105.457443,105.494019 
	C105.457443,133.256180 105.457443,160.348892 105.457443,187.747498 
	C97.696556,187.747498 90.297043,187.747498 82.279457,187.747498 
	C82.279457,167.359940 82.279457,146.929916 82.279465,125.999878 
z"/>
<path fill="#FCFCFC" opacity="1.000000" stroke="none" 
	d="
M373.999695,105.589745 
	C353.864594,105.589737 334.229523,105.589737 314.270142,105.589737 
	C314.270142,97.874107 314.270142,90.466057 314.270142,82.731842 
	C349.218994,82.731842 384.254791,82.731842 419.505798,82.731842 
	C419.505798,117.723701 419.505798,152.487259 419.505798,187.653595 
	C412.149384,187.653595 404.756622,187.653595 396.830139,187.653595 
	C396.830139,160.666779 396.830139,133.465408 396.830139,105.589752 
	C389.046356,105.589752 381.773041,105.589752 373.999695,105.589745 
z"/>
<path fill="#FCFCFC" opacity="1.000000" stroke="none" 
	d="
M82.279465,328.009674 
	C82.279465,323.206329 82.279465,318.900635 82.279465,314.272949 
	C89.993805,314.272949 97.403778,314.272949 105.328949,314.272949 
	C105.328949,341.406799 105.328949,368.627228 105.328949,396.336975 
	C133.071777,396.336975 160.310852,396.336975 187.779312,396.336975 
	C187.779312,404.248016 187.779312,411.666687 187.779312,419.338562 
	C152.771423,419.338562 117.856239,419.338562 82.279457,419.338562 
	C82.279457,388.994385 82.279457,358.750854 82.279465,328.009674 
z"/>
<path fill="#FCFCFC" opacity="1.000000" stroke="none" 
	d="
M371.999725,419.589752 
	C352.531036,419.589752 333.562378,419.589752 314.269806,419.589752 
	C314.269806,411.873566 314.269806,404.465424 314.269806,396.558716 
	C341.410675,396.558716 368.645081,396.558716 396.421509,396.558716 
	C396.421509,368.862427 396.421509,341.650085 396.421509,314.193115 
	C404.372284,314.193115 411.779388,314.193115 419.454529,314.193115 
	C419.454529,349.217896 419.454529,384.114929 419.454529,419.589752 
	C403.719543,419.589752 388.109650,419.589752 371.999725,419.589752 
z"/>
<path fill="#FC0000" opacity="1.000000" stroke="none" 
	d="
M117.216293,148.571243 
	C112.645256,140.322388 112.524727,132.479614 117.610207,124.809830 
	C122.728775,117.090157 130.405792,114.805725 138.937164,116.149834 
	C147.284271,117.464920 152.837051,122.718468 155.333328,130.980621 
	C157.982117,139.747559 154.367920,149.611679 146.647339,154.456329 
	C138.171844,159.774643 128.287827,159.142654 121.278412,152.789734 
	C119.922997,151.561264 118.691780,150.195740 117.216293,148.571243 
z"/>
</svg>